<svg id="mjolnir" enable-background="new 0 0 300 300" height="512" viewBox="0 0 300 300" width="512" xmlns="http://www.w3.org/2000/svg" xmlns:xlink="http://www.w3.org/1999/xlink"><linearGradient id="SVGID_1_" gradientUnits="userSpaceOnUse" x1="38.376" x2="252.752" y1="263.478" y2="49.101"><stop offset="0" stop-color="#107eff"/><stop offset="1" stop-color="#8f16ff"/></linearGradient><g><path d="m255.017 52.25-42.437-23.992c-4.391-2.477-9.633-2.934-14.387-1.27-4.754 1.672-8.555 5.313-10.426 9.992-1.77 4.426-1.672 9.262.27 13.613 1.945 4.348 5.48 7.645 9.961 9.277l22.916 8.334-97.115 97.115-21.641-21.641c-.344-.344-.742-.621-1.184-.82l-22.492-10.133c-1.516-.68-3.301-.355-4.473.82l-36.574 36.574c-1.176 1.176-1.5 2.953-.82 4.469l10.129 22.492c.199.445.477.844.82 1.188l62.531 62.531c.344.344.742.621 1.184.82l9.711 4.375h-70.437c-2.211 0-4 1.789-4 4s1.789 4 4 4h164c2.211 0 4-1.789 4-4s-1.789-4-4-4h-71.371l31.64-31.637c1.176-1.176 1.5-2.957.82-4.473l-10.133-22.492c-.199-.441-.477-.84-.82-1.184l-18.922-18.922 97.766-97.766c1.024-1.024 1.81-2.182 2.488-3.386l7.387-3.212c6.273-2.719 10.328-8.898 10.328-15.738 0-6.172-3.34-11.894-8.719-14.934zm-17.042 31.498-10.635-10.635c2.946-2.826 7.636-2.802 10.536.099s2.926 7.589.099 10.536zm-86.77 65.479 5.219-5.219 10.656 10.656-5.219 5.219zm5 16.313-5.404 5.404-10.656-10.656 5.404-5.404zm5.875-27.188 5.219-5.219 10.656 10.656-5.219 5.219zm10.875-10.875 5.219-5.219 10.656 10.656-5.219 5.219zm10.875-10.875 5.219-5.219 10.656 10.656-5.219 5.219zm10.875-10.875 5.219-5.219 10.656 10.656-5.219 5.219zm10.875-10.875 5.219-5.219 10.656 10.656-5.219 5.219zm10.875-10.875 5.219-5.219 10.656 10.656-5.219 5.219zm-171.41 89.848 32.668-32.668 14.692 6.621-40.743 40.742zm11.006 21.619 43.277-43.277 56.875 56.875-43.277 43.273zm111.162 35.213-32.672 32.668-14.691-6.62 40.743-40.74zm-37.758-59.68 5.033-5.033 10.656 10.656-5.033 5.033zm120.766-95.387-2.329 1.013c-.413-3.308-1.823-6.513-4.358-9.048-3.534-3.534-8.359-4.942-12.972-4.351l-29.825-10.848c-2.426-.887-4.34-2.672-5.395-5.027-1.051-2.359-1.105-4.98-.145-7.379 1.012-2.531 3.074-4.508 5.648-5.41 2.582-.906 5.426-.656 7.797.684l42.438 23.988c2.871 1.625 4.656 4.68 4.656 7.977 0 3.647-2.164 6.948-5.515 8.401zm-126.313 144.434c9.055-9.055 9.055-23.789 0-32.844s-23.789-9.055-32.844 0-9.055 23.789 0 32.844c4.527 4.527 10.473 6.793 16.422 6.793s11.895-2.266 16.422-6.793zm-66.574-161.231c-.48-2.156.875-4.297 3.031-4.777 2.148-.457 4.293.879 4.773 3.035l4.395 19.711 5.93-11.516c.805-1.566 2.527-2.445 4.277-2.102 1.734.316 3.055 1.734 3.254 3.484l4.852 42.992c.246 2.195-1.332 4.176-3.527 4.426-.152.016-.305.023-.453.023-2.008 0-3.742-1.508-3.973-3.551l-3.367-29.863-4.941 9.59c-.77 1.496-2.379 2.312-4.066 2.137-1.668-.219-3.027-1.457-3.391-3.098z" fill="url(#SVGID_1_)"/></g></svg>