<?xml version="1.0"?>
<svg xmlns="http://www.w3.org/2000/svg" id="Layer_3" data-name="Layer 3" viewBox="0 0 64 64" width="512" height="512"><path d="M29,43H12a1,1,0,0,1-1-1V40.174L6.537,44,11,47.826V46a1,1,0,0,1,1-1H29Z"/><path d="M35,22H52a1,1,0,0,1,1,1v1.826L57.463,21,53,17.174V19a1,1,0,0,1-1,1H35Z"/><path d="M25,21A11,11,0,1,0,14,32,11.013,11.013,0,0,0,25,21ZM10,24h2a2,2,0,1,0,2-2,3.992,3.992,0,0,1-1-7.858V12h2v2.142A4,4,0,0,1,18,18H16a2,2,0,1,0-2,2,3.992,3.992,0,0,1,1,7.858V30H13V27.858A4,4,0,0,1,10,24Z"/><polygon points="38.586 5 40.586 3 23.414 3 25.414 5 38.586 5"/><path d="M38,59H26a1,1,0,0,0-1,1v1H39V60A1,1,0,0,0,38,59Z"/><path d="M37,43A13.014,13.014,0,0,1,47,30.363V24H34a1,1,0,0,1-1-1V19a1,1,0,0,1,1-1H47V7a3.992,3.992,0,0,0-3.624-3.962L39.707,6.707A1,1,0,0,1,39,7H25a1,1,0,0,1-.707-.293L20.624,3.038A3.992,3.992,0,0,0,17,7V8.363a12.985,12.985,0,0,1,0,25.274V41H30a1,1,0,0,1,1,1v4a1,1,0,0,1-1,1H17V57a4,4,0,0,0,4,4h2V60a3,3,0,0,1,3-3H38a3,3,0,0,1,3,3v1h2a4,4,0,0,0,4-4V55.637A13.014,13.014,0,0,1,37,43ZM34,10h8v2H34Zm-6,6V14H40v2ZM24,51V49H36v2Zm14,3.857H30v-2h8Z"/><path d="M50,32A11,11,0,1,0,61,43,11.013,11.013,0,0,0,50,32Zm0,10a3.992,3.992,0,0,1,1,7.858V52H49V49.858A4,4,0,0,1,46,46h2a2,2,0,1,0,2-2,3.992,3.992,0,0,1-1-7.858V34h2v2.142A4,4,0,0,1,54,40H52a2,2,0,1,0-2,2Z"/></svg>
