<svg id="Layer_1" enable-background="new 0 0 512.102 512.102" height="512" viewBox="0 0 512.102 512.102" width="512" xmlns="http://www.w3.org/2000/svg"><g><path d="m512.102 218.142h-34.006v-102.189h-34.006v-59.677h-399.251c-24.725 0-44.839 20.114-44.839 44.839v29.838 280.034c0 24.724 20.114 44.838 44.839 44.838h433.257v-102.189h34.006zm-467.263-131.866h369.251v29.677h-369.251c-8.183 0-14.839-6.656-14.839-14.838s6.656-14.839 14.839-14.839zm-14.839 324.711v-267.557c4.646 1.634 9.641 2.523 14.839 2.523h38.547v279.873h-38.547c-8.183-.001-14.839-6.657-14.839-14.839zm418.096 14.838h-334.71v-279.872h334.71v72.189h-32.446c-37.355 0-67.747 30.392-67.747 67.748s30.392 67.747 67.747 67.747h32.445v72.188zm34.006-102.189h-66.452c-20.813 0-37.747-16.933-37.747-37.747s16.934-37.748 37.747-37.748h66.451v75.495z"/><path d="m403.708 270.889h34.006v30h-34.006z"/><path d="m284.94 278.073c4.389-6.774 6.95-14.837 6.95-23.492 0-22.032-16.533-40.264-37.842-42.972v-18.493h-30v18.133h-42.023v30h17.085v89.282h-17.085v30h42.023v18.133h30v-18.133h1.997c25.534 0 46.309-20.774 46.309-46.309 0-14.612-6.81-27.655-17.414-36.149zm-36.383-36.825c7.352 0 13.333 5.981 13.333 13.333s-5.981 13.333-13.333 13.333h-19.447v-26.665h19.447zm7.488 56.665c8.992 0 16.309 7.316 16.309 16.309s-7.316 16.309-16.309 16.309h-26.936v-32.617h26.936z"/></g></svg>